<svg xmlns="http://www.w3.org/2000/svg" width="32" height="32" viewBox="0 0 32 32">
  <rect width="32" height="32" rx="8" fill="#EA580C"/>
  <g transform="translate(6, 6)" fill="none" stroke="white" stroke-width="1.8" stroke-linecap="round" stroke-linejoin="round">
    <circle cx="13.5" cy="6.5" r="0.5" fill="white"/>
    <circle cx="12" cy="2.5" r="0.5" fill="white"/>
    <circle cx="7.5" cy="2" r="0.5" fill="white"/>
    <circle cx="4" cy="4.5" r="0.5" fill="white"/>
    <path d="M2 10c0-4.4 3.6-8 8-8 4.8 0 8.4 4 7.4 8.4-.4 1.6-2 2.6-3.6 2.6h-1.6c-1.2 0-2.2 1-2.2 2.2 0 .6.2 1.1.6 1.5.4.5.6 1 .4 1.7C10.6 19.4 9.4 20 8.2 20 4.8 20 2 17.2 2 13.8V10z"/>
  </g>
</svg>
